# File created by Blade
# Date/Time:  Mon Nov 18 18:33:23 2013
# Frame Rate: 100.000 fps
#------------------------------------------------------
:FULLY-SPECIFIED
:DEGREES
188
root 53.561713 -2.933109 52.197489 -1.777879 1.582276 -125.742729
Spine 12.957077 -0.933884 -0.652194
Spine1 3.271651 1.367848 -1.698856
Spine2 0.480006 -1.572064 -1.800617
NeckDummy 0.001288 -0.096031 -0.013012 -1.588590 1.478226 -0.568597
Neck 13.936908 -1.208730 28.507646
Head -0.307111 0.336646 0.218250 -34.554681 -4.218859 -0.730294
LeftShoulderDummy -0.061536 -0.086262 0.043191 -1.568615 1.358752 -0.358075
LeftShoulder 6.927768 -3.707933 14.325361
LeftArm 22.260002 49.127364 29.195391
LeftForeArm 90.862678
LeftForeArmRoll -36.286406
LeftHand -9.636876 5.874549 -4.575222
LeftHandThumb1 16.754747 12.656608
LeftHandIndex1 14.443429 43.572137
LeftHandPinky1 13.749309 48.149474
RightShoulderDummy -0.035680 -0.070267 0.082007 -1.604512 -1.489412 0.574366
RightShoulder 6.252842 4.748993 17.167746
RightArm -47.829568 68.020502 -9.487793
RightForeArm 113.568619
RightForeArmRoll 5.900817
RightHand -17.851829 -15.512126 12.165361
RightHandThumb1 -0.246833 13.648481
RightHandIndex1 13.688863 61.226791
RightHandPinky1 19.092654 70.106422
LeftUpLeg 6.575528 20.756755 -33.461334
LeftLeg 53.775956
LeftFoot 0.580860 -1.042301 -0.798700 -11.237089 10.197387 -13.257482
LeftToeBase -1.640713
RightUpLeg 11.249726 12.370619 -26.367036
RightLeg 61.862073
RightFoot -0.525735 0.457026 0.260825 0.466308 7.044634 -32.010071
RightToeBase -0.875562
189
root 53.552928 -2.975763 52.215040 -1.856954 1.574677 -125.701905
Spine 13.005279 -0.865413 -0.725563
Spine1 3.304230 1.411425 -1.843100
Spine2 0.525049 -1.662601 -1.681007
NeckDummy 0.000603 -0.101192 -0.014059 -1.582111 1.397549 -0.573967
Neck 13.851944 -1.193387 28.550377
Head -0.309683 0.336863 0.216720 -34.535818 -4.255470 -0.715779
LeftShoulderDummy -0.063446 -0.091995 0.043048 -1.563226 1.278236 -0.360698
LeftShoulder 6.825088 -3.646851 14.320537
LeftArm 22.379532 49.254278 29.178995
LeftForeArm 90.871982
LeftForeArmRoll -36.376491
LeftHand -9.563566 5.755620 -4.574220
LeftHandThumb1 16.896932 12.805603
LeftHandIndex1 14.403405 43.532279
LeftHandPinky1 13.751540 48.287239
RightShoulderDummy -0.036852 -0.075384 0.079123 -1.598015 -1.408683 0.580042
RightShoulder 6.198316 4.700579 17.132370
RightArm -47.383170 68.101594 -9.031168
RightForeArm 113.638250
RightForeArmRoll 5.677221
RightHand -17.719520 -15.679630 12.236249
RightHandThumb1 -0.039900 13.590584
RightHandIndex1 13.531622 61.438101
RightHandPinky1 18.788262 69.735432
LeftUpLeg 6.382473 20.677172 -33.588527
LeftLeg 54.067127
LeftFoot 0.585273 -1.037869 -0.805452 -11.175633 10.325802 -13.389551
LeftToeBase -1.522506
RightUpLeg 11.321611 12.474891 -26.332445
RightLeg 62.003159
RightFoot -0.522777 0.444076 0.262984 0.407796 6.959010 -32.135683
RightToeBase -0.828628
190
root 53.545320 -3.019107 52.228717 -1.912316 1.534302 -125.669658
Spine 13.032361 -0.801048 -0.757641
Spine1 3.316680 1.456071 -1.896972
Spine2 0.573886 -1.687359 -1.576328
NeckDummy -0.000034 -0.105682 -0.015456 -1.578497 1.321200 -0.564476
Neck 13.814138 -1.166521 28.495146
Head -0.312446 0.337480 0.214695 -34.496427 -4.290341 -0.731055
LeftShoulderDummy -0.064199 -0.096549 0.042858 -1.559994 1.201851 -0.349998
LeftShoulder 6.813310 -3.640690 14.280467
LeftArm 22.590455 49.326017 29.332578
LeftForeArm 90.868023
LeftForeArmRoll -36.438953
LeftHand -9.588496 5.817615 -4.614139
LeftHandThumb1 16.984376 12.802874
LeftHandIndex1 14.409789 43.797184
LeftHandPinky1 13.684273 48.222023
RightShoulderDummy -0.037666 -0.079944 0.075553 -1.595636 -1.330420 0.569660
RightShoulder 6.126130 4.649725 17.206515
RightArm -46.879083 68.110008 -8.550128
RightForeArm 113.688746
RightForeArmRoll 5.551367
RightHand -17.870989 -15.355990 12.121256
RightHandThumb1 -0.556794 13.485255
RightHandIndex1 13.806371 59.965746
RightHandPinky1 19.261527 69.308132
LeftUpLeg 6.243303 20.680622 -33.760978
LeftLeg 54.397748
LeftFoot 0.588568 -1.039362 -0.805719 -11.180420 10.371767 -13.508502
LeftToeBase -1.525830
RightUpLeg 11.393513 12.543105 -26.358674
RightLeg 62.225986
RightFoot -0.525233 0.434800 0.259178 0.337848 6.898394 -32.227225
RightToeBase -0.874305
191
root 53.529508 -3.062174 52.244260 -1.977205 1.503746 -125.580155
Spine 13.047473 -0.712893 -0.795074
Spine1 3.336220 1.505403 -1.964085
Spine2 0.591133 -1.705543 -1.601387
NeckDummy 0.000101 -0.108969 -0.015966 -1.564405 1.340171 -0.568435
Neck 13.839243 -1.114012 28.363650
Head -0.309111 0.337911 0.215159 -34.467917 -4.333480 -0.692927
LeftShoulderDummy -0.063628 -0.099696 0.041666 -1.545245 1.220663 -0.356136
LeftShoulder 6.872052 -3.683090 14.256215
LeftArm 22.818597 49.302671 29.542908
LeftForeArm 90.806172
LeftForeArmRoll -36.519231
LeftHand -9.629379 5.863922 -4.636444
LeftHandThumb1 16.941409 12.865332
LeftHandIndex1 14.499818 43.793758
LeftHandPinky1 13.762676 48.197295
RightShoulderDummy -0.037543 -0.083180 0.074573 -1.581927 -1.348724 0.573946
RightShoulder 6.109533 4.644875 17.210482
RightArm -46.279196 68.161880 -8.077404
RightForeArm 113.749753
RightForeArmRoll 5.435851
RightHand -17.847245 -15.325271 12.133067
RightHandThumb1 -0.388403 13.489087
RightHandIndex1 13.613510 60.188239
RightHandPinky1 18.928220 69.331979
LeftUpLeg 6.029939 20.641440 -33.933065
LeftLeg 54.730124
LeftFoot 0.582294 -1.036880 -0.805559 -11.118266 10.407310 -13.581552
LeftToeBase -1.539561
RightUpLeg 11.528255 12.669254 -26.373659
RightLeg 62.458823
RightFoot -0.534034 0.430349 0.260086 0.254146 6.783259 -32.308284
RightToeBase -0.867300
192
root 53.514086 -3.101328 52.257053 -2.059269 1.450880 -125.542714
Spine 13.092979 -0.638306 -0.782328
Spine1 3.361641 1.550406 -1.920221
Spine2 0.545268 -1.623152 -1.730861
NeckDummy 0.000480 -0.114251 -0.014359 -1.523761 1.429272 -0.554487
Neck 14.021571 -1.179116 28.299309
Head -0.312915 0.344504 0.213912 -34.542849 -4.290610 -0.756158
LeftShoulderDummy -0.063422 -0.105054 0.039813 -1.504597 1.309071 -0.338943
LeftShoulder 6.823899 -3.747117 14.146549
LeftArm 22.863516 49.405658 29.609955
LeftForeArm 90.690974
LeftForeArmRoll -36.607013
LeftHand -9.606360 5.879987 -4.517854
LeftHandThumb1 16.894542 12.723069
LeftHandIndex1 14.418098 43.691520
LeftHandPinky1 13.702815 48.143886
RightShoulderDummy -0.036504 -0.088946 0.076072 -1.541669 -1.436813 0.559949
RightShoulder 6.136832 4.760833 17.258447
RightArm -45.592519 68.263339 -7.477081
RightForeArm 113.762861
RightForeArmRoll 5.214988
RightHand -17.781054 -15.483699 12.167138
RightHandThumb1 -0.237649 13.420161
RightHandIndex1 13.538906 60.255283
RightHandPinky1 18.840903 68.439451
LeftUpLeg 5.893522 20.670372 -34.063931
LeftLeg 55.011947
LeftFoot 0.590173 -1.040569 -0.830022 -11.297201 10.332019 -13.620709
LeftToeBase -1.343858
RightUpLeg 11.548457 12.732837 -26.395451
RightLeg 62.710204
RightFoot -0.530450 0.434380 0.258725 0.131000 6.748583 -32.393160
RightToeBase -0.869987
193
root 53.501351 -3.139030 52.265074 -2.124857 1.417237 -125.580062
Spine 13.108977 -0.599889 -0.757624
Spine1 3.367783 1.561121 -1.847963
Spine2 0.558808 -1.580383 -1.792658
NeckDummy 0.000776 -0.116189 -0.014850 -1.520426 1.472697 -0.553523
Neck 14.104094 -1.083994 28.175800
Head -0.314231 0.345964 0.212761 -34.534556 -4.291907 -0.726631
LeftShoulderDummy -0.063631 -0.107347 0.038109 -1.501484 1.352715 -0.336564
LeftShoulder 6.831549 -3.741675 14.143196
LeftArm 22.969698 49.453264 29.858893
LeftForeArm 90.573175
LeftForeArmRoll -36.606827
LeftHand -9.606166 5.756578 -4.514042
LeftHandThumb1 17.105118 12.718852
LeftHandIndex1 14.251913 43.717423
LeftHandPinky1 13.591818 48.297903
RightShoulderDummy -0.036279 -0.090870 0.075956 -1.539144 -1.478909 0.559098
RightShoulder 6.158251 4.717467 17.319230
RightArm -44.722996 68.263759 -6.718315
RightForeArm 113.710824
RightForeArmRoll 5.188490
RightHand -17.846268 -15.245877 12.297685
RightHandThumb1 -0.175546 13.316870
RightHandIndex1 13.459365 60.158988
RightHandPinky1 18.754821 68.484149
LeftUpLeg 5.880558 20.759477 -34.177079
LeftLeg 55.285662
LeftFoot 0.592933 -1.040766 -0.843496 -11.259385 10.281795 -13.623029
LeftToeBase -1.262691
RightUpLeg 11.457298 12.744682 -26.468599
RightLeg 62.947639
RightFoot -0.524202 0.438372 0.263283 0.038751 6.774302 -32.430802
RightToeBase -0.858379
